<svg xmlns="http://www.w3.org/2000/svg" width="220" height="65.24" viewBox="0 0 220 65.24"><defs><style>.a{fill:#2671b4;}</style></defs><title>qi-logo-website</title><path class="a" d="M26.32,54.43l2.11,7.2c.17.64-.3.93-.88.93H20.93c-.58,0-.87-.29-1.05-.93l-2.11-7.09C5.89,53.61,2.55,47.87,2.55,31.77c0-17.79,4-23.06,19-23.06s19,5.27,19,23.06C40.48,47.4,37.32,53.26,26.32,54.43Zm4.86-22.66c0-11.47-1.58-15-9.66-15s-9.66,3.57-9.66,15,1.58,14.87,9.66,14.87S31.18,43.13,31.18,31.77Z"/><path class="a" d="M55.71,9.06c.58,0,.88.29.88.94V53.43c0,.65-.3.94-.88.94H48.27c-.58,0-.87-.29-.87-.94V10c0-.65.29-.94.87-.94Z"/><path class="a" d="M81.45,9.34a.64.64,0,0,1,.62.69V34.26c0,.38-.18.55-.52.55H78.42c-.35,0-.52-.17-.52-.55V27.93a36.71,36.71,0,0,1-4.37.17c-6.37,0-7.92-2.07-7.92-9.85,0-7.57,1.55-9.53,8.5-9.53A41,41,0,0,1,81.45,9.34Zm-7.47,3c-3.82,0-4.2,1.35-4.2,6.06,0,4.92.51,6.06,4.4,6.06a27.94,27.94,0,0,0,3.72-.21V12.33Z"/><path class="a" d="M102.8,8.89a.46.46,0,0,1,.52.52V27c0,.45-.17.48-.52.55a40.94,40.94,0,0,1-7.67.59c-6.37,0-8.16-1-8.16-8.19V9.41c0-.35.24-.52.59-.52h3.09c.35,0,.49.17.49.52v9.74c0,5.09.79,5.33,4,5.33h4V9.41a.46.46,0,0,1,.52-.52Z"/><path class="a" d="M123,14.37v12a.88.88,0,0,1-.69,1,31.92,31.92,0,0,1-7.75.76c-4.81,0-7.26-.76-7.26-5.75,0-4.37,2.31-5.47,6.54-5.47h5V15.09c0-1.93-1.13-2.76-3.89-2.76h-5.64c-.41,0-.52-.1-.52-.51V9.72c0-.41.14-.48.48-.55a30.61,30.61,0,0,1,5.68-.45C121,8.72,123,10.65,123,14.37ZM114,19.87c-1.82,0-2.65.59-2.65,2.31,0,2,.93,2.44,3.48,2.44a18.53,18.53,0,0,0,3.92-.38V19.87Z"/><path class="a" d="M144.14,16.88V27.41a.48.48,0,0,1-.55.52H140.5a.46.46,0,0,1-.52-.52V17.63c0-5.09-.79-5.3-4-5.3h-4V27.41a.46.46,0,0,1-.51.52h-3.17c-.34,0-.48-.18-.48-.52V9.82c0-.45.17-.48.48-.55A40.92,40.92,0,0,1,136,8.72C142.39,8.72,144.14,9.68,144.14,16.88Z"/><path class="a" d="M153.63,3.63c.38-.11.58.1.58.48V8.93h3.41c.35,0,.55.17.55.51v2.17a.49.49,0,0,1-.55.55h-3.41v10.5c0,1.51.45,1.82,2.14,1.82h1.51c.42,0,.59.14.59.49v2.27a.55.55,0,0,1-.52.62,15.71,15.71,0,0,1-2.44.24c-2.69,0-5.47-.07-5.47-4.2V12.16h-2a.49.49,0,0,1-.55-.55V9.44a.48.48,0,0,1,.55-.51h2V5c0-.35.17-.48.48-.55Z"/><path class="a" d="M177.67,18.05v1c0,.65-.2.93-1.17.93H165.59c.1,3.65.93,4.47,4.27,4.47h5.88a.46.46,0,0,1,.52.52v2.13a.52.52,0,0,1-.48.59,43.42,43.42,0,0,1-6.16.38c-6.71,0-8.23-1.93-8.23-9.67s1.52-9.71,8.23-9.71C176.09,8.72,177.6,10.58,177.67,18.05Zm-12.08-1h7.88c0-3.71-.79-4.68-3.85-4.68S165.63,13.3,165.59,17Z"/><path class="a" d="M197.14,1.63c.38,0,.51.14.51.52V26.76a.62.62,0,0,1-.62.72,41.19,41.19,0,0,1-7.36.62c-6.95,0-8.47-2-8.47-9.67s1.52-9.71,7.88-9.71a37.63,37.63,0,0,1,4.41.21V2.15c0-.38.17-.52.51-.52Zm-7.4,10.7c-3.86,0-4.37,1.14-4.37,6.1,0,4.68.37,6.05,4.26,6.05a31.23,31.23,0,0,0,3.86-.27V12.33Z"/><path class="a" d="M217.29,14.37v12a.88.88,0,0,1-.69,1,31.88,31.88,0,0,1-7.74.76c-4.82,0-7.26-.76-7.26-5.75,0-4.37,2.3-5.47,6.54-5.47h5V15.09c0-1.93-1.14-2.76-3.89-2.76h-5.65c-.41,0-.51-.1-.51-.51V9.72c0-.41.13-.48.48-.55a30.48,30.48,0,0,1,5.68-.45C215.29,8.72,217.29,10.65,217.29,14.37Zm-8.91,5.5c-1.83,0-2.65.59-2.65,2.31,0,2,.93,2.44,3.47,2.44a18.62,18.62,0,0,0,3.93-.38V19.87Z"/><path class="a" d="M70.65,38.42a1.64,1.64,0,0,1-3.28,0,1.64,1.64,0,0,1,3.28,0ZM70,42a.3.3,0,0,1,.34.34V54.17a.3.3,0,0,1-.34.34H68a.3.3,0,0,1-.34-.34V42.34A.3.3,0,0,1,68,42Z"/><path class="a" d="M90.87,47.25v6.92a.32.32,0,0,1-.36.34h-2a.3.3,0,0,1-.34-.34V47.75c0-3.35-.52-3.49-2.65-3.49h-2.6v9.91a.3.3,0,0,1-.34.34H80.46c-.23,0-.32-.11-.32-.34V42.61c0-.3.11-.32.32-.36a27,27,0,0,1,5.07-.36C89.71,41.89,90.87,42.52,90.87,47.25Z"/><path class="a" d="M103.18,38.42A1.43,1.43,0,0,1,101.55,40a1.56,1.56,0,1,1,0-3.12A1.44,1.44,0,0,1,103.18,38.42ZM102.57,42a.3.3,0,0,1,.34.34V54.17a.3.3,0,0,1-.34.34h-2.06a.3.3,0,0,1-.34-.34V42.34a.3.3,0,0,1,.34-.34Z"/><path class="a" d="M116.38,38.54c.25-.07.39.06.39.31V42H119a.32.32,0,0,1,.36.34v1.43a.33.33,0,0,1-.36.36h-2.24v6.9c0,1,.29,1.2,1.4,1.2h1c.27,0,.38.09.38.32v1.49a.37.37,0,0,1-.34.41,10.5,10.5,0,0,1-1.6.16c-1.77,0-3.6-.05-3.6-2.77V44.15h-1.29a.32.32,0,0,1-.36-.36V42.36c0-.23.13-.34.36-.34H114v-2.6a.32.32,0,0,1,.31-.36Z"/><path class="a" d="M132,38.42A1.43,1.43,0,0,1,130.36,40a1.56,1.56,0,1,1,0-3.12A1.44,1.44,0,0,1,132,38.42ZM131.38,42a.3.3,0,0,1,.34.34V54.17a.3.3,0,0,1-.34.34h-2.06a.3.3,0,0,1-.34-.34V42.34a.3.3,0,0,1,.34-.34Z"/><path class="a" d="M150.81,45.6v7.87a.57.57,0,0,1-.45.66,21.08,21.08,0,0,1-5.09.5c-3.17,0-4.78-.5-4.78-3.78,0-2.88,1.52-3.6,4.3-3.6h3.28V46.07c0-1.27-.74-1.81-2.55-1.81H141.8c-.27,0-.33-.07-.33-.34V42.54c0-.27.09-.32.31-.36a20.07,20.07,0,0,1,3.74-.29C149.5,41.89,150.81,43.15,150.81,45.6ZM145,49.22c-1.2,0-1.74.38-1.74,1.51,0,1.29.61,1.61,2.28,1.61a11.79,11.79,0,0,0,2.58-.25V49.22Z"/><path class="a" d="M163,38.54c.25-.07.38.06.38.31V42h2.25a.32.32,0,0,1,.36.34v1.43a.33.33,0,0,1-.36.36h-2.25v6.9c0,1,.3,1.2,1.41,1.2h1c.27,0,.39.09.39.32v1.49a.37.37,0,0,1-.34.41,10.73,10.73,0,0,1-1.61.16c-1.76,0-3.6-.05-3.6-2.77V44.15h-1.29a.33.33,0,0,1-.36-.36V42.36a.32.32,0,0,1,.36-.34h1.29v-2.6c0-.23.12-.32.32-.36Z"/><path class="a" d="M178.21,38.42a1.64,1.64,0,0,1-3.28,0,1.64,1.64,0,0,1,3.28,0ZM177.6,42a.3.3,0,0,1,.34.34V54.17a.3.3,0,0,1-.34.34h-2.06a.3.3,0,0,1-.34-.34V42.34a.3.3,0,0,1,.34-.34Z"/><path class="a" d="M198.45,42c.25,0,.32.07.27.36L196.16,52c-.61,2.38-.79,2.68-3.32,2.68-2.36,0-2.56-.28-3.22-2.68L187,42.36c0-.29,0-.36.29-.36h2.24c.18,0,.2.07.29.36l2.36,9c.22.79.29.9.68.9s.56-.11.77-.9l2.28-9c.07-.29.11-.36.3-.36Z"/><path class="a" d="M216.72,48v.68c0,.43-.14.61-.77.61h-7.18c.07,2.4.61,2.94,2.81,2.94h3.87a.3.3,0,0,1,.34.34V54a.35.35,0,0,1-.32.39,28.12,28.12,0,0,1-4.05.25c-4.41,0-5.41-1.27-5.41-6.36s1-6.38,5.41-6.38S216.67,43.11,216.72,48Zm-7.95-.68H214c0-2.45-.52-3.08-2.54-3.08S208.8,44.89,208.77,47.34Z"/></svg>